<svg xmlns="http://www.w3.org/2000/svg" xmlns:xlink="http://www.w3.org/1999/xlink" version="1.1" width="1000" height="1000" viewBox="0 0 1000 1000" xml:space="preserve">
<desc>Created with Fabric.js 3.5.0</desc>
<defs>
</defs>
<rect x="0" y="0" width="100%" height="100%" fill="rgba(255,255,255,0)"/>
<g transform="matrix(7.3833 0 0 7.3833 498.633 498.633)" id="274264">
<path style="stroke: none; stroke-width: 1; stroke-dasharray: none; stroke-linecap: butt; stroke-dashoffset: 0; stroke-linejoin: miter; stroke-miterlimit: 4; is-custom-font: none; font-file-url: none; fill: rgb(255,255,255); fill-rule: nonzero; opacity: 1;" vector-effect="non-scaling-stroke" transform=" translate(-67.5, -67.5)" d="M 67.5 135 C 104.779 135 135 104.779 135 67.5 C 135 30.2208 104.779 0 67.5 0 C 30.2208 0 0 30.2208 0 67.5 C 0 104.779 30.2208 135 67.5 135 Z" stroke-linecap="round"/>
</g>
<g transform="matrix(1.8109 0 0 1.8109 499.9904 499.9904)" id="300214">
<g style="" vector-effect="non-scaling-stroke">
		<g transform="matrix(1 0 0 1 0 6.694)" id="Layer_1">
<polygon style="stroke: none; stroke-width: 1; stroke-dasharray: none; stroke-linecap: butt; stroke-dashoffset: 0; stroke-linejoin: miter; stroke-miterlimit: 4; is-custom-font: none; font-file-url: none; fill: rgb(80,165,220); fill-rule: nonzero; opacity: 1;" points="197.964,-159.71 197.964,121.456 0,132.933 -197.964,121.456 -197.964,-159.71 -241,-159.71 -241,159.71 241,159.71 241,-159.71 "/>
</g>
		<g transform="matrix(1 0 0 1 0 -13.389)" id="Layer_1">
<polygon style="stroke: none; stroke-width: 1; stroke-dasharray: none; stroke-linecap: butt; stroke-dashoffset: 0; stroke-linejoin: miter; stroke-miterlimit: 4; is-custom-font: none; font-file-url: none; fill: rgb(199,235,255); fill-rule: nonzero; opacity: 1;" points="0,-141.54 -197.964,-153.016 -197.964,-139.627 -197.964,141.539 0,153.016 197.964,141.539 197.964,-139.627 197.964,-153.016 "/>
</g>
		<g transform="matrix(1 0 0 1 0 0)" id="Layer_1">
<path style="stroke: none; stroke-width: 1; stroke-dasharray: none; stroke-linecap: butt; stroke-dashoffset: 0; stroke-linejoin: miter; stroke-miterlimit: 4; is-custom-font: none; font-file-url: none; fill: rgb(0,0,0); fill-rule: nonzero; opacity: 1;" transform=" translate(-251, -251)" d="M 492 87.984 h -33.036 v -3.389 c 0 -2.753 -1.135 -5.384 -3.137 -7.272 c -2.004 -1.891 -4.707 -2.866 -7.442 -2.711 L 251 86.054 L 53.615 74.612 c -2.75 -0.155 -5.441 0.82 -7.442 2.711 c -2.002 1.889 -3.137 4.52 -3.137 7.272 v 3.389 H 10 c -5.522 0 -10 4.478 -10 10 v 319.42 c 0 5.522 4.478 10 10 10 h 482 c 5.522 0 10 -4.478 10 -10 V 97.984 C 502 92.462 497.522 87.984 492 87.984 z M 261 105.509 l 177.964 -10.316 v 274.521 L 261 380.03 V 105.509 z M 63.036 95.192 L 241 105.509 V 380.03 L 63.036 369.713 V 95.192 z M 482 407.404 H 20 v -299.42 h 23.036 V 379.15 c 0 5.298 4.132 9.677 9.421 9.983 l 197.964 11.477 c 0.193 0.011 0.384 0.016 0.575 0.016 c 0.001 0 0.002 0 0.003 0 H 251 h 0.001 c 0.001 0 0.002 0 0.003 0 c 0.192 0 0.384 -0.006 0.575 -0.016 l 197.964 -11.477 c 5.289 -0.307 9.421 -4.686 9.421 -9.983 V 107.984 H 482 V 407.404 z" stroke-linecap="round"/>
</g>
		<g transform="matrix(1 0 0 1 -72.205 -112.9604)" id="Layer_1">
<path style="stroke: none; stroke-width: 1; stroke-dasharray: none; stroke-linecap: butt; stroke-dashoffset: 0; stroke-linejoin: miter; stroke-miterlimit: 4; is-custom-font: none; font-file-url: none; fill: rgb(0,0,0); fill-rule: nonzero; opacity: 1;" transform=" translate(-178.7951, -138.0396)" d="M 214.281 130.08 l -69.813 -4.047 c -5.516 -0.327 -10.242 3.892 -10.563 9.404 c -0.319 5.514 3.892 10.243 9.404 10.563 l 69.813 4.047 c 0.197 0.012 0.394 0.017 0.588 0.017 c 5.258 0 9.666 -4.104 9.975 -9.421 C 224.005 135.129 219.794 130.399 214.281 130.08 z" stroke-linecap="round"/>
</g>
		<g transform="matrix(1 0 0 1 -149.1901 -117.4231)" id="Layer_1">
<path style="stroke: none; stroke-width: 1; stroke-dasharray: none; stroke-linecap: butt; stroke-dashoffset: 0; stroke-linejoin: miter; stroke-miterlimit: 4; is-custom-font: none; font-file-url: none; fill: rgb(0,0,0); fill-rule: nonzero; opacity: 1;" transform=" translate(-101.8099, -133.577)" d="M 92.623 143.061 l 17.215 0.998 c 0.197 0.012 0.394 0.017 0.588 0.017 c 5.258 0 9.666 -4.104 9.975 -9.421 c 0.319 -5.514 -3.891 -10.243 -9.404 -10.562 l -17.215 -0.998 c -5.541 -0.32 -10.242 3.892 -10.563 9.404 C 82.899 138.012 87.109 142.742 92.623 143.061 z" stroke-linecap="round"/>
</g>
		<g transform="matrix(1 0 0 1 -97.5485 -68.525)" id="Layer_1">
<path style="stroke: none; stroke-width: 1; stroke-dasharray: none; stroke-linecap: butt; stroke-dashoffset: 0; stroke-linejoin: miter; stroke-miterlimit: 4; is-custom-font: none; font-file-url: none; fill: rgb(0,0,0); fill-rule: nonzero; opacity: 1;" transform=" translate(-153.4516, -182.475)" d="M 214.281 175.984 l -120.5 -6.985 c -5.541 -0.319 -10.242 3.892 -10.563 9.404 c -0.319 5.514 3.891 10.243 9.404 10.563 l 120.5 6.985 c 0.197 0.012 0.394 0.017 0.588 0.017 c 5.258 0 9.666 -4.104 9.975 -9.421 C 224.005 181.033 219.795 176.303 214.281 175.984 z" stroke-linecap="round"/>
</g>
		<g transform="matrix(1 0 0 1 -97.5485 -21.6639)" id="Layer_1">
<path style="stroke: none; stroke-width: 1; stroke-dasharray: none; stroke-linecap: butt; stroke-dashoffset: 0; stroke-linejoin: miter; stroke-miterlimit: 4; is-custom-font: none; font-file-url: none; fill: rgb(0,0,0); fill-rule: nonzero; opacity: 1;" transform=" translate(-153.4516, -229.3361)" d="M 214.281 222.845 l -120.5 -6.985 c -5.541 -0.317 -10.242 3.892 -10.563 9.404 c -0.319 5.514 3.891 10.243 9.404 10.563 l 120.5 6.985 c 0.197 0.012 0.394 0.017 0.588 0.017 c 5.258 0 9.666 -4.104 9.975 -9.421 C 224.005 227.894 219.795 223.165 214.281 222.845 z" stroke-linecap="round"/>
</g>
		<g transform="matrix(1 0 0 1 -97.5485 24.2421)" id="Layer_1">
<path style="stroke: none; stroke-width: 1; stroke-dasharray: none; stroke-linecap: butt; stroke-dashoffset: 0; stroke-linejoin: miter; stroke-miterlimit: 4; is-custom-font: none; font-file-url: none; fill: rgb(0,0,0); fill-rule: nonzero; opacity: 1;" transform=" translate(-153.4516, -275.2421)" d="M 214.281 268.751 l -120.5 -6.985 c -5.541 -0.317 -10.242 3.892 -10.563 9.404 c -0.319 5.514 3.891 10.243 9.404 10.563 l 120.5 6.985 c 0.197 0.012 0.394 0.017 0.588 0.017 c 5.258 0 9.666 -4.104 9.975 -9.421 C 224.005 273.8 219.795 269.07 214.281 268.751 z" stroke-linecap="round"/>
</g>
		<g transform="matrix(1 0 0 1 122.413 22.9103)" id="Layer_1">
<path style="stroke: none; stroke-width: 1; stroke-dasharray: none; stroke-linecap: butt; stroke-dashoffset: 0; stroke-linejoin: miter; stroke-miterlimit: 4; is-custom-font: none; font-file-url: none; fill: rgb(0,0,0); fill-rule: nonzero; opacity: 1;" transform=" translate(-373.413, -273.9103)" d="M 410.131 261.765 l -74.595 4.324 c -5.514 0.319 -9.724 5.049 -9.404 10.563 c 0.309 5.316 4.716 9.421 9.975 9.421 c 0.194 0 0.391 -0.005 0.588 -0.017 l 74.595 -4.324 c 5.514 -0.319 9.724 -5.049 9.404 -10.563 C 420.373 265.657 415.685 261.442 410.131 261.765 z" stroke-linecap="round"/>
</g>
		<g transform="matrix(1 0 0 1 47.3395 27.2623)" id="Layer_1">
<path style="stroke: none; stroke-width: 1; stroke-dasharray: none; stroke-linecap: butt; stroke-dashoffset: 0; stroke-linejoin: miter; stroke-miterlimit: 4; is-custom-font: none; font-file-url: none; fill: rgb(0,0,0); fill-rule: nonzero; opacity: 1;" transform=" translate(-298.3395, -278.2623)" d="M 305.889 267.808 l -16.258 0.942 c -5.513 0.319 -9.724 5.049 -9.404 10.563 c 0.309 5.316 4.716 9.421 9.975 9.421 c 0.194 0 0.391 -0.005 0.588 -0.017 l 16.258 -0.942 c 5.513 -0.319 9.724 -5.049 9.404 -10.563 C 316.131 271.7 311.417 267.485 305.889 267.808 z" stroke-linecap="round"/>
</g>
		<g transform="matrix(1 0 0 1 99.4605 -21.6639)" id="Layer_1">
<path style="stroke: none; stroke-width: 1; stroke-dasharray: none; stroke-linecap: butt; stroke-dashoffset: 0; stroke-linejoin: miter; stroke-miterlimit: 4; is-custom-font: none; font-file-url: none; fill: rgb(0,0,0); fill-rule: nonzero; opacity: 1;" transform=" translate(-350.4605, -229.3361)" d="M 410.131 215.86 l -120.5 6.985 c -5.514 0.319 -9.724 5.049 -9.404 10.563 c 0.309 5.316 4.716 9.421 9.975 9.421 c 0.194 0 0.391 -0.005 0.588 -0.017 l 120.5 -6.985 c 5.514 -0.319 9.724 -5.049 9.404 -10.563 C 420.373 219.752 415.685 215.543 410.131 215.86 z" stroke-linecap="round"/>
</g>
		<g transform="matrix(1 0 0 1 99.4605 -68.5254)" id="Layer_1">
<path style="stroke: none; stroke-width: 1; stroke-dasharray: none; stroke-linecap: butt; stroke-dashoffset: 0; stroke-linejoin: miter; stroke-miterlimit: 4; is-custom-font: none; font-file-url: none; fill: rgb(0,0,0); fill-rule: nonzero; opacity: 1;" transform=" translate(-350.4605, -182.4745)" d="M 410.131 168.999 l -120.5 6.985 c -5.514 0.319 -9.724 5.049 -9.404 10.563 c 0.309 5.316 4.716 9.421 9.975 9.421 c 0.194 0 0.391 -0.005 0.588 -0.017 l 120.5 -6.985 c 5.514 -0.319 9.724 -5.049 9.404 -10.563 C 420.373 172.89 415.685 168.671 410.131 168.999 z" stroke-linecap="round"/>
</g>
		<g transform="matrix(1 0 0 1 99.4605 -114.4302)" id="Layer_1">
<path style="stroke: none; stroke-width: 1; stroke-dasharray: none; stroke-linecap: butt; stroke-dashoffset: 0; stroke-linejoin: miter; stroke-miterlimit: 4; is-custom-font: none; font-file-url: none; fill: rgb(0,0,0); fill-rule: nonzero; opacity: 1;" transform=" translate(-350.4605, -136.5698)" d="M 410.131 123.094 l -120.5 6.985 c -5.514 0.319 -9.724 5.049 -9.404 10.563 c 0.309 5.316 4.716 9.421 9.975 9.421 c 0.194 0 0.391 -0.005 0.588 -0.017 l 120.5 -6.985 c 5.514 -0.319 9.724 -5.049 9.404 -10.563 C 420.373 126.986 415.685 122.771 410.131 123.094 z" stroke-linecap="round"/>
</g>
</g>
</g>
</svg>